<svg width="203" height="30" viewBox="0 0 203 30" fill="none" xmlns="http://www.w3.org/2000/svg">
<path fill-rule="evenodd" clip-rule="evenodd" d="M0 9.67696V19.3539L8.07549 19.3144L16.151 19.2748L16.7907 18.9244C17.1424 18.7316 17.627 18.3006 17.8674 17.9665L18.3045 17.3591L18.3505 14.2698C18.3828 12.1081 18.3454 11.0597 18.2259 10.7782C18.043 10.3469 17.2396 9.75406 16.797 9.74256C17.9315 9.20581 18.3894 8.79102 18.3441 5.25679C18.3079 2.44491 18.278 2.12334 18.0046 1.6121C17.6502 0.949748 16.785 0.312768 15.9968 0.134319C15.6868 0.0640883 11.9608 0.00521253 7.71658 0.00339019L0 2.5861e-05V9.67696ZM28.3896 0.196699C27.5761 0.48519 26.91 1.04493 26.5741 1.7227C26.2776 2.32085 26.2723 2.47982 26.2723 10.8382V19.3449H27.8515H29.4307V15.9806V12.6163H35.4604H41.4901V15.9806V19.3449H43.0693H44.6485V10.955C44.6485 4.98877 44.6007 2.42753 44.483 2.08857C44.2246 1.3445 43.8256 0.875032 43.0959 0.456173L42.4233 0.070116L35.6757 0.0378746C30.2749 0.0120814 28.8207 0.0437621 28.3896 0.196699ZM50.0609 0.175251C50.1354 0.271695 51.8553 2.56729 53.8829 5.2767L57.5693 10.2029V14.7739V19.3449H59.0767H60.5842V14.8028V10.2607L64.3886 5.20506C66.4811 2.42445 68.1931 0.115815 68.1931 0.074742C68.1931 0.0336691 67.3371 0.00030622 66.2908 0.00058658L64.3886 0.00128748L61.8281 3.43416C60.4199 5.32225 59.215 6.89886 59.1505 6.93769C59.0861 6.97666 57.8589 5.43159 56.4235 3.50425L53.8137 2.5861e-05H51.8695C50.3375 2.5861e-05 49.9539 0.0371736 50.0609 0.175251ZM72.2129 1.47192V2.94381H75.3713H78.5297V11.1444V19.3449H80.1089H81.6881V11.1444V2.94381H84.8465H88.005V1.47192V2.5861e-05H80.1089H72.2129V1.47192ZM94.6089 9.67247V19.3449H96.1881H97.7673V9.67247V2.5861e-05H96.1881H94.6089V9.67247ZM105.663 9.67247V19.3449H107.243H108.822V15.2096V11.0743L111.514 11.0764L114.205 11.0786L117.149 15.2071L120.092 19.3355L122.059 19.3403L124.027 19.3449L120.65 14.5628C118.663 11.7484 117.306 9.69799 117.353 9.57995C117.396 9.46977 118.86 7.35375 120.605 4.87788C122.351 2.40188 123.812 0.291601 123.853 0.188148C123.912 0.0364727 123.556 0.0011473 122.009 0.00577325L120.092 0.0113805L117.164 4.14109L114.236 8.27067H111.529H108.822V4.13535V2.5861e-05H107.243H105.663V9.67247ZM197.527 1.99101C196.707 3.0861 195.896 4.27135 195.8 4.40003L197.664 7.02615L198.439 6.00129C199.74 4.28127 202.885 0.186019 203 0C203 0 202.45 2.5861e-05 200.945 2.5861e-05H199.016L197.527 1.99101ZM142.559 9.74256V19.3449H147.728H152.896V17.9431V16.5413H149.235H145.574V8.34076V0.140206H144.067H142.559V9.74256ZM159.644 8.62673C159.644 16.6928 159.657 17.1389 159.917 17.6333C160.235 18.2389 160.664 18.6471 161.366 19.0131C161.837 19.2581 162.308 19.2748 168.76 19.2748C175.54 19.2748 175.66 19.2699 176.225 18.973C176.946 18.5943 177.37 18.1545 177.654 17.4901C177.846 17.0411 177.876 15.8341 177.876 8.55552V0.140206H176.369H174.861V8.17254C174.861 14.233 174.819 16.2462 174.689 16.3731C174.442 16.6148 163.078 16.6148 162.831 16.3731C162.701 16.2462 162.658 14.233 162.658 8.17254V0.140206H161.151H159.644V8.62673ZM184.791 0.252771C184.818 0.314731 186.39 2.43061 188.285 4.9547C190.18 7.47893 191.747 9.59033 191.767 9.64682C191.788 9.70331 190.193 11.8926 188.223 14.5122L184.641 19.2748L186.383 19.3144C187.341 19.3362 188.198 19.3268 188.287 19.2935C188.375 19.2602 189.606 17.6825 191.022 15.7873C192.438 13.892 193.661 12.3602 193.74 12.3831C193.819 12.4061 195.047 13.9805 196.468 15.8819L199.052 19.3389L200.953 19.342L202.854 19.3449L200.516 16.2259C199.23 14.5105 195.992 10.1895 193.321 6.62355L188.463 0.140206H186.603C185.58 0.140206 184.765 0.190811 184.791 0.252771ZM15.146 2.94073V8.27375H3.15842V5.60724V2.94073H15.146ZM41.4568 6.34319L41.4953 9.67247H35.463H29.4307V6.40164C29.4307 4.60257 29.4745 3.08792 29.528 3.03577C29.5814 2.98348 32.2787 2.95727 35.5218 2.97732L41.4183 3.0139L41.4568 6.34319ZM15.146 11.0743V16.3676H9.15223L3.15842 16.4042V13.7392V11.0743H9.02704C13.8446 11.0743 15.146 11.0743 15.146 11.0743ZM170.985 24.2863L170.985 25.1624L169.615 25.1136C168.052 25.058 167.648 25.1268 167.249 25.5164C166.998 25.7614 166.965 25.9874 166.965 27.4817C166.965 29.0907 166.982 29.1866 167.32 29.5167C167.666 29.8547 167.725 29.8628 169.761 29.8502L171.847 29.8373V26.6236V23.4102H171.416H170.985L170.985 24.2863ZM163.233 23.9709C163.233 24.3447 163.28 24.3914 163.663 24.3914C164.046 24.3914 164.094 24.3447 164.094 23.9709C164.094 23.597 164.046 23.5503 163.663 23.5503C163.28 23.5503 163.233 23.597 163.233 23.9709ZM142.559 27.4855V29.8584H142.99H143.421C143.421 29.8584 143.425 30.6995 143.423 28.2814C143.421 25.8633 143.405 26.0736 144.514 26.0736H145.431V25.5849V25.0961L143.995 25.1044L142.559 25.1125V27.4855ZM148.059 25.4306C147.681 25.7478 147.653 25.8484 147.606 27.0499C147.544 28.6183 147.648 29.2145 148.049 29.5786C148.327 29.8321 148.556 29.8584 150.483 29.8584H152.609V29.4418V29.0252L150.635 28.9862L148.661 28.9473L148.617 28.5071L148.573 28.0668L150.246 28.0151C152.178 28.0151 151.993 27.8959 152.178 27.6857C152.448 27.3795 152.35 25.4566 152.178 25.2325C151.963 24.9521 151.317 25.1044 150.116 25.0923C148.574 25.0923 148.434 25.1153 148.059 25.4306ZM155.833 25.4365C155.531 25.731 155.48 25.9112 155.48 26.6901C155.48 27.9489 155.627 28.0361 157.737 28.0361H159.356V28.5267V29.0174H157.418H155.48V29.4379V29.8584H157.568C159.594 29.8584 159.667 29.8482 160.009 29.5143C160.303 29.2269 160.361 29.0343 160.361 28.3445C160.361 27.146 160.239 27.0733 158.13 27.0246L156.413 26.9847V26.5642V26.1437L158.387 26.1047L160.361 26.0657V25.579V25.0923H158.273C156.248 25.0923 156.174 25.1025 155.833 25.4365ZM163.233 27.4754V29.8584H163.663H164.094V27.4754V25.0923H163.663H163.233V27.4754ZM175.344 25.2563C174.85 25.4899 174.718 25.9912 174.718 27.6286C174.718 29.0785 174.739 29.1908 175.07 29.5143C175.412 29.8482 175.485 29.8584 177.511 29.8584H179.599V29.4379V29.0174H177.661H175.723V28.5391V28.0609L177.291 28.0134C178.718 27.9702 178.892 27.9355 179.229 27.6262C179.538 27.3428 179.599 27.1612 179.599 26.5334C179.599 25.9209 179.533 25.7163 179.247 25.4365C178.913 25.1104 178.809 25.0929 177.273 25.1018C176.381 25.107 175.513 25.1766 175.344 25.2563ZM182.47 27.4853V29.8584H182.973H183.475V27.966V26.0736H184.983H186.49V27.966V29.8584H186.995H187.499L187.453 27.807C187.407 25.7646 187.406 25.7541 187.011 25.4224C186.631 25.1038 186.525 25.0899 184.542 25.1007L182.47 25.1121V27.4853ZM190.63 25.5138L190.199 25.9352L190.247 27.6292C190.311 29.9134 190.241 29.8584 193.11 29.8584H195.248V29.4418V29.0252L193.274 28.9862L191.3 28.9473L191.259 27.5104L191.218 26.0736H193.233H195.248V25.5829V25.0923H193.155H191.062L190.63 25.5138ZM198.383 25.5138L197.951 25.9352L197.999 27.6292C198.064 29.9134 197.993 29.8584 200.862 29.8584H203V29.4418V29.0252L201.026 28.9862L199.052 28.9473L199.007 28.4917L198.962 28.0361H200.34C201.982 28.0361 202.584 27.8382 202.85 27.2099C203.11 26.598 202.951 25.7955 202.494 25.4077C202.155 25.1199 201.978 25.0923 200.469 25.0923C198.821 25.0923 198.813 25.094 198.383 25.5138ZM151.604 26.5642V27.0548H150.097H148.589V26.5642V26.0736H150.097H151.604V26.5642ZM170.913 27.5455V28.9473L169.442 28.9872L167.97 29.0272V27.5455V26.0638L169.442 26.1037L170.913 26.1437V27.5455ZM178.711 26.5292L178.666 26.9847L177.194 27.0247L175.723 27.0647V26.5691V26.0736H177.239H178.756L178.711 26.5292ZM201.968 26.5292L201.923 26.9847L200.452 27.0247L198.98 27.0647V26.5691V26.0736H200.497H202.013L201.968 26.5292Z" fill="#253659"/>
<path fill-rule="evenodd" clip-rule="evenodd" d="M142.559 9.74255V19.3449H147.728H152.896V17.9431V16.5413H149.235H145.574V8.34075V0.140198H144.067H142.559V9.74255ZM159.644 8.62672C159.644 16.6928 159.657 17.1389 159.917 17.6333C160.235 18.2389 160.664 18.6471 161.366 19.0131C161.837 19.2581 162.308 19.2748 168.76 19.2748C175.54 19.2748 175.66 19.2699 176.225 18.973C176.946 18.5942 177.37 18.1545 177.654 17.49C177.846 17.041 177.876 15.8341 177.876 8.55551V0.140198H176.369H174.861V8.17253C174.861 14.233 174.819 16.2462 174.689 16.3731C174.442 16.6148 163.078 16.6148 162.831 16.3731C162.701 16.2462 162.658 14.233 162.658 8.17253V0.140198H161.151H159.644V8.62672ZM184.5 0C184.5 0 186.39 2.4306 188.285 4.95469C190.18 7.47892 191.747 9.59032 191.767 9.64681C191.788 9.7033 190.193 11.8926 188.223 14.5122L184.641 19.2748L186.383 19.3144C187.341 19.3362 188.198 19.3268 188.287 19.2935C188.375 19.2602 189.606 17.6825 191.022 15.7873C192.438 13.892 193.661 12.3601 193.74 12.3831C193.819 12.4061 195.047 13.9805 196.468 15.8819L199.052 19.3389L200.953 19.342L202.854 19.3449L200.516 16.2259C199.23 14.5105 195.993 10.1894 193.321 6.62354L188.4 0H184.5ZM170.985 24.2863L170.985 25.1624L169.615 25.1136C168.052 25.058 167.648 25.1268 167.249 25.5163C166.998 25.7614 166.965 25.9874 166.965 27.4817C166.965 29.0907 166.982 29.1866 167.32 29.5167C167.666 29.8547 167.725 29.8628 169.761 29.8502L171.847 29.8373V26.6236V23.4101H171.416H170.985L170.985 24.2863ZM163.233 23.9709C163.233 24.3447 163.281 24.3914 163.663 24.3914C164.046 24.3914 164.094 24.3447 164.094 23.9709C164.094 23.597 164.046 23.5503 163.663 23.5503C163.281 23.5503 163.233 23.597 163.233 23.9709ZM142.559 27.4855V29.8584H142.99H143.421C143.421 29.8584 143.425 30.6995 143.423 28.2814C143.421 25.8633 143.405 26.0736 144.514 26.0736H145.431V25.5849V25.0961L143.995 25.1044L142.559 25.1125V27.4855ZM148.059 25.4306C147.681 25.7478 147.653 25.8484 147.606 27.0499C147.544 28.6183 147.648 29.2144 148.049 29.5786C148.327 29.8321 148.556 29.8584 150.483 29.8584H152.609V29.4418V29.0252L150.635 28.9862L148.661 28.9473L148.617 28.5071L148.573 28.0668L150.246 28.0151C152.178 28.0151 151.993 27.8959 152.178 27.6856C152.448 27.3795 152.35 25.4566 152.178 25.2325C151.963 24.9521 151.317 25.1044 150.116 25.0923C148.574 25.0923 148.434 25.1153 148.059 25.4306ZM155.833 25.4364C155.531 25.731 155.48 25.9112 155.48 26.6901C155.48 27.9489 155.627 28.0361 157.738 28.0361H159.356V28.5267V29.0174H157.418H155.48V29.4379V29.8584H157.568C159.594 29.8584 159.667 29.8482 160.009 29.5143C160.303 29.2269 160.361 29.0343 160.361 28.3445C160.361 27.1459 160.239 27.0733 158.13 27.0246L156.413 26.9847V26.5642V26.1437L158.387 26.1047L160.361 26.0657V25.579V25.0923H158.273C156.248 25.0923 156.175 25.1025 155.833 25.4364ZM163.233 27.4754V29.8584H163.663H164.094V27.4754V25.0923H163.663H163.233V27.4754ZM175.344 25.2563C174.85 25.4899 174.718 25.9911 174.718 27.6286C174.718 29.0785 174.739 29.1908 175.07 29.5143C175.412 29.8482 175.485 29.8584 177.511 29.8584H179.599V29.4379V29.0174H177.661H175.723V28.5391V28.0609L177.291 28.0134C178.718 27.9702 178.892 27.9354 179.229 27.6262C179.538 27.3428 179.599 27.1612 179.599 26.5334C179.599 25.9209 179.533 25.7162 179.247 25.4364C178.913 25.1104 178.809 25.0929 177.273 25.1018C176.381 25.107 175.513 25.1766 175.344 25.2563ZM182.47 27.4853V29.8584H182.973H183.475V27.966V26.0736H184.983H186.49V27.966V29.8584H186.995H187.5L187.453 27.807C187.408 25.7646 187.406 25.7541 187.011 25.4224C186.631 25.1038 186.525 25.0899 184.542 25.1007L182.47 25.1121V27.4853ZM190.63 25.5138L190.199 25.9352L190.247 27.6292C190.311 29.9134 190.241 29.8584 193.11 29.8584H195.248V29.4418V29.0252L193.274 28.9862L191.3 28.9473L191.259 27.5104L191.218 26.0736H193.233H195.248V25.5829V25.0923H193.155H191.062L190.63 25.5138ZM198.383 25.5138L197.951 25.9352L197.999 27.6292C198.064 29.9134 197.993 29.8584 200.863 29.8584H203V29.4418V29.0252L201.026 28.9862L199.052 28.9473L199.007 28.4917L198.962 28.0361H200.34C201.982 28.0361 202.584 27.8382 202.85 27.2099C203.11 26.598 202.951 25.7955 202.494 25.4077C202.155 25.1199 201.978 25.0923 200.469 25.0923C198.821 25.0923 198.813 25.094 198.383 25.5138ZM151.604 26.5642V27.0548H150.097H148.589V26.5642V26.0736H150.097H151.604V26.5642ZM170.913 27.5455V28.9473L169.442 28.9872L167.97 29.0272V27.5455V26.0638L169.442 26.1037L170.913 26.1437V27.5455ZM178.711 26.5292L178.666 26.9847L177.194 27.0247L175.723 27.0646V26.5691V26.0736H177.239H178.756L178.711 26.5292ZM201.968 26.5292L201.923 26.9847L200.452 27.0247L198.98 27.0646V26.5691V26.0736H200.497H202.013L201.968 26.5292Z" fill="#009EE3"/>
</svg>
